<?xml version="1.0" encoding="UTF-8" standalone="no"?>
<!-- Created with Inkscape (http://www.inkscape.org/) -->

<svg
   width="1275.7"
   height="174.02795"
   viewBox="0 0 1275.7 174.02795"
   version="1.1"
   id="svg1"
   xml:space="preserve"
   xmlns="http://www.w3.org/2000/svg"
   xmlns:svg="http://www.w3.org/2000/svg"><defs
     id="defs1" /><g
     id="g44"
     transform="translate(256.68681,-643.39864)"><g
       id="g19"
       transform="matrix(0.82691817,0,0,0.82691817,-322.74502,445.89493)"
       style="fill:#0000ff"><path
         fill-rule="evenodd"
         fill="#429fd2"
         fill-opacity="1"
         d="m 664.66409,394.64207 c 0,0 0.39817,-0.5802 1.0772,-0.56713 0.87572,0.0169 1.33828,0.7211 1.33828,0.7211 0.23846,0.36758 0.72972,0.47278 1.09697,0.23496 0.36821,-0.23814 0.47245,-0.72939 0.23495,-1.09697 0,0 -0.90664,-1.41161 -2.63928,-1.44508 -1.51139,-0.029 -2.40815,1.24456 -2.40815,1.24456 -0.25057,0.35897 -0.16323,0.85373 0.19573,1.10462 0.35832,0.25057 0.85373,0.1629 1.1043,-0.19606 z m -5.01333,-0.029 c 0,0 2.84331,-3.22427 6.28818,-3.09324 2.9941,0.11413 5.74049,3.157 5.74049,3.157 0.2952,0.3223 0.79794,0.34365 1.12055,0.0472 0.3223,-0.29616 0.34334,-0.79825 0.0472,-1.12055 0,0 -3.29694,-3.53349 -6.84797,-3.66867 -4.10668,-0.15652 -7.53051,3.62021 -7.53051,3.62021 -0.29201,0.32644 -0.26428,0.82823 0.0619,1.12024 0.32612,0.29201 0.8279,0.26428 1.12023,-0.0622 z m -3.33903,-1.12438 c 0,0 2.73652,-1.71 3.47356,-2.10116 0.38702,-0.20498 0.53462,-0.6854 0.329,-1.07241 -0.20499,-0.3867 -0.68573,-0.53398 -1.0721,-0.329 -0.75745,0.40168 -3.57079,2.15727 -3.57079,2.15727 -0.3714,0.23176 -0.48457,0.72143 -0.25249,1.09282 0.23177,0.37139 0.72143,0.48456 1.09282,0.25248 z m 6.38796,-4.00435 c 0,0 2.68487,-1.69565 5.72104,-0.0641 3.43085,1.84357 6.65128,3.96704 6.65128,3.96704 0.36534,0.24102 0.85755,0.13996 1.09825,-0.22538 0.241,-0.36534 0.14058,-0.85787 -0.22508,-1.09887 0,0 -3.28005,-2.16269 -6.77305,-4.04006 -3.88799,-2.08936 -7.32617,0.12433 -7.32617,0.12433 -0.36884,0.23559 -0.47722,0.72652 -0.24164,1.09537 0.23591,0.36916 0.72653,0.47723 1.09537,0.24164 z m -9.26059,2.45757 c 0,0 4.19594,-2.66319 6.63693,-4.03495 2.27107,-1.27612 5.60246,-3.31065 9.52551,-1.09601 4.21922,2.38202 8.70047,5.28908 8.70047,5.28908 0.36725,0.23814 0.85947,0.13358 1.09761,-0.23367 0.23845,-0.36725 0.13325,-0.85883 -0.23399,-1.09728 0,0 -4.52462,-2.93448 -8.784,-5.33946 -4.55619,-2.57233 -8.44513,-0.38796 -11.08281,1.09442 -2.46777,1.38675 -6.70994,4.07862 -6.70994,4.07862 -0.36948,0.23463 -0.47915,0.72494 -0.24451,1.09474 0.23463,0.36948 0.72493,0.47914 1.09473,0.24451 z m -2.97019,-1.59236 c 0,0 5.64103,-3.25296 8.35873,-4.75575 2.56309,-1.41767 5.7016,-3.60489 10.80897,-1.58535 5.40767,2.13846 8.59272,5.24732 11.61551,6.60441 0.39913,0.17916 0.86934,8.2e-4 1.04882,-0.3988 0.17885,-0.39913 0,-0.86903 -0.39912,-1.04851 -3.03905,-1.36411 -6.24482,-4.48222 -11.68246,-6.63247 -5.73826,-2.26885 -9.28004,0.0797 -12.15969,1.67238 -2.72535,1.50757 -8.38328,4.76977 -8.38328,4.76977 -0.37904,0.21869 -0.50943,0.70421 -0.29073,1.08326 0.21869,0.37936 0.70389,0.50975 1.08325,0.29106 z m 27.39158,-4.92789 c 0,0 3.8153,2.26405 5.9069,3.29758 0.39275,0.19415 0.86934,0.0328 1.06253,-0.35959 0.19446,-0.39244 0.0328,-0.86872 -0.35896,-1.06254 -2.05493,-1.01504 -5.80074,-3.23957 -5.80074,-3.23957 -0.37713,-0.22347 -0.86361,-0.0991 -1.08708,0.27736 -0.22379,0.37648 -0.0998,0.86328 0.27735,1.08676 z m -9.17548,-6.1546 c 0,0 -4.77582,-1.71383 -11.00566,1.83368 -5.83166,3.32054 -8.61089,5.23298 -10.45797,6.08383 -0.39754,0.18299 -0.5716,0.65481 -0.38861,1.05234 0.1833,0.39753 0.6548,0.5716 1.05233,0.38829 1.8678,-0.86042 4.6821,-2.78816 10.57944,-6.14599 5.49916,-3.13118 9.6983,-1.71447 9.6983,-1.71447 0.41283,0.14441 0.86583,-0.0743 1.00929,-0.48743 0.14441,-0.41348 -0.0743,-0.86616 -0.48712,-1.01025 z m -22.72031,7.39502 c 0,0 6.74532,-3.62626 9.27494,-5.20014 2.4225,-1.50757 7.49511,-4.63747 14.69313,-3.14202 4.20295,0.8735 6.48167,3.16466 9.70275,5.1571 3.59247,2.22262 6.17469,3.32724 6.17469,3.32724 0.40231,0.17246 0.86903,-0.014 1.0415,-0.41635 0.17214,-0.40231 -0.014,-0.86902 -0.41635,-1.04149 0,0 -2.49391,-1.0705 -5.96588,-3.21852 -3.3811,-2.0916 -5.80169,-4.44396 -10.21441,-5.36081 -7.76259,-1.61309 -13.24104,1.72211 -15.85354,3.34795 -2.50571,1.5589 -9.18759,5.14977 -9.18759,5.14977 -0.38574,0.20721 -0.53047,0.68859 -0.32325,1.07433 0.20721,0.38542 0.68859,0.53015 1.07401,0.32294 z m -2.21178,-2.02943 c 0,0 7.72306,-4.12932 11.20586,-6.29169 3.32181,-2.0629 10.20645,-5.22436 16.62979,-2.35555 7.07241,3.15891 12.52344,7.04531 16.12897,8.72279 0.39722,0.18458 0.86903,0.0121 1.05425,-0.38479 0.18458,-0.39689 0.0124,-0.86902 -0.3851,-1.0536 -3.61032,-1.6794 -9.06932,-5.56962 -16.15161,-8.73267 -6.98983,-3.12225 -14.49771,0.21104 -18.11313,2.45597 -3.45475,2.14547 -11.11692,6.24036 -11.11692,6.24036 -0.38606,0.20657 -0.53206,0.68731 -0.32549,1.07337 0.20626,0.38606 0.68732,0.53206 1.07338,0.32581 z m 33.0868,-1.68833 c 0,0 -2.86722,-1.86142 -5.40353,-2.90738 -0.40391,-0.16705 -0.86839,0.0261 -1.03576,0.43068 -0.1664,0.40456 0.0261,0.86872 0.43101,1.03576 2.41485,0.99591 5.14307,2.77095 5.14307,2.77095 0.36725,0.23876 0.85851,0.1342 1.0976,-0.23273 0.23846,-0.36693 0.1339,-0.85882 -0.23239,-1.09728 z m -24.4029,-6.23047 c 0,0 5.20077,-3.6253 9.86215,-4.17012 4.66967,-0.54577 9.13786,-0.24739 14.4958,2.88603 5.5846,3.26666 9.80222,5.87469 12.81608,7.07591 0.40646,0.16194 0.86839,-0.0367 1.03066,-0.44313 0.16162,-0.40678 -0.0367,-0.86838 -0.44313,-1.03065 -2.96476,-1.18177 -7.10906,-3.75793 -12.60312,-6.97135 -5.72169,-3.34668 -10.49273,-3.67535 -15.48087,-3.0926 -4.99579,0.58402 -10.58167,4.44237 -10.58167,4.44237 -0.3596,0.24961 -0.44918,0.74438 -0.19956,1.10397 0.24961,0.3596 0.74406,0.44886 1.10366,0.19957 z m -10.65372,5.7644 c 0,0 5.36974,-2.68519 8.07564,-4.17427 0.38351,-0.21135 0.52346,-0.69401 0.31242,-1.07751 -0.21104,-0.38351 -0.69369,-0.52346 -1.0772,-0.31242 -2.68742,1.4792 -8.02017,4.14525 -8.02017,4.14525 -0.3918,0.19575 -0.55056,0.67265 -0.35482,1.06413 0.19574,0.39148 0.67265,0.55056 1.06413,0.35482 z m -1.33797,-2.14356 c 0,0 9.62912,-5.36304 12.05385,-7.00195 2.33738,-1.58025 9.65302,-4.80961 19.09788,-2.77031 5.84665,1.26242 12.48741,5.95568 12.48741,5.95568 0.35736,0.25216 0.85277,0.16641 1.10493,-0.19127 0.25217,-0.35769 0.16641,-0.8531 -0.19096,-1.10526 0,0 -6.95253,-4.88963 -13.06664,-6.20975 -10.05376,-2.17065 -17.83292,1.32458 -20.32109,3.00653 -2.40083,1.62329 -11.93718,6.93023 -11.93718,6.93023 -0.38255,0.21294 -0.51995,0.69655 -0.30699,1.0791 0.21295,0.38223 0.69624,0.51995 1.07879,0.307 z m 46.4155,-2.18596 c 0,0 2.82705,1.37145 4.28297,2.0712 0.39403,0.18968 0.86807,0.0236 1.0584,-0.37108 0.18936,-0.39466 0.0229,-0.86871 -0.3714,-1.05839 -1.45337,-0.69911 -4.27724,-2.06896 -4.27724,-2.06896 -0.39402,-0.19096 -0.86902,-0.0265 -1.05998,0.36757 -0.19096,0.3937 -0.0261,0.8687 0.36725,1.05966 z m 6.20242,-1.86684 c 0,0 -8.58539,-4.20359 -12.48964,-7.09823 -3.7576,-2.78561 -6.3446,-6.39369 -6.71919,-11.52338 -0.41442,-5.67514 0.68541,-11.35283 2.77063,-15.42285 2.22326,-4.34067 4.22336,-7.73995 3.3062,-13.1744 -0.93535,-5.5371 -5.0739,-10.85487 -11.86864,-12.00476 -6.81864,-1.15498 -12.32004,2.48499 -14.63893,6.94234 -3.0722,5.90626 -3.84049,8.17351 -7.64336,13.14348 -3.58131,4.68051 -7.7033,8.16108 -14.04025,12.18711 -0.36948,0.23495 -0.47882,0.72557 -0.24419,1.09473 0.23495,0.3698 0.72525,0.47915 1.09505,0.24419 6.52599,-4.14557 10.76115,-7.74218 14.44925,-12.562 3.87173,-5.05987 4.66329,-7.36314 7.79096,-13.37461 2.05175,-3.94409 6.93437,-7.13265 12.96687,-6.11188 6.05482,1.02524 9.73624,5.77078 10.5686,10.70504 0.85054,5.03692 -1.09282,8.16427 -3.15349,12.18678 -2.19839,4.29286 -3.3776,10.27755 -2.94022,16.26224 0.41124,5.63815 3.22586,9.6205 7.35549,12.68218 3.98267,2.95297 12.73606,7.24838 12.73606,7.24838 0.3934,0.19287 0.8684,0.0303 1.06191,-0.3631 0.19254,-0.39276 0.0293,-0.86839 -0.36311,-1.06126 z m -53.84655,1.40618 c 0,0 8.43843,-4.00466 13.16835,-7.29523 5.43063,-3.77769 9.90264,-8.6721 13.57449,-12.52758 2.37564,-2.49486 4.94319,-6.1766 4.94319,-6.1766 0.24962,-0.35927 0.16131,-0.85404 -0.19765,-1.10429 -0.35896,-0.25025 -0.85436,-0.16195 -1.10429,0.19733 0,0 -2.48658,3.57111 -4.7905,5.98947 -3.60808,3.78884 -7.99466,8.60707 -13.33124,12.3194 -4.64768,3.23319 -12.94201,7.16421 -12.94201,7.16421 -0.39562,0.18746 -0.56458,0.66086 -0.37681,1.05649 0.18745,0.39562 0.66085,0.56426 1.05647,0.3768 z m 37.81959,-14.14225 c 0,0 1.95324,3.76494 6.30858,6.24195 4.14111,2.35492 10.20486,5.67131 10.20486,5.67131 0.3835,0.21009 0.86584,0.0685 1.07624,-0.3156 0.20976,-0.38383 0.0685,-0.86616 -0.31592,-1.07624 0,0 -6.04972,-3.30875 -10.18095,-5.65825 -3.91541,-2.22707 -5.68661,-5.59703 -5.68661,-5.59703 -0.20244,-0.38797 -0.68222,-0.53876 -1.06987,-0.33632 -0.38829,0.20275 -0.53844,0.68221 -0.33633,1.07018 z m -39.12408,11.79882 c 0,0 9.29598,-4.49721 14.43937,-8.53853 5.16507,-4.05823 7.17697,-6.30348 7.17697,-6.30348 0.29296,-0.32549 0.26587,-0.82758 -0.0596,-1.12023 -0.32548,-0.29266 -0.82726,-0.26588 -1.11991,0.0599 0,0 -1.96026,2.17448 -6.97741,6.11634 -5.03883,3.95909 -14.14959,8.35746 -14.14959,8.35746 -0.39402,0.19063 -0.55948,0.66532 -0.36884,1.05935 0.19032,0.39434 0.665,0.55947 1.05903,0.36916 z m -1.30163,-2.32942 c 0,0 9.76014,-4.46595 19.84067,-12.75933 6.09594,-5.01492 14.15023,-17.75545 16.98525,-24.28687 1.20535,-2.77731 1.33445,-5.11789 0.87731,-7.01597 -0.70262,-2.91759 -2.80155,-4.82429 -4.74809,-5.71531 -1.93986,-0.88784 -4.75065,-1.34403 -7.44539,-0.044 -1.76101,0.84958 -3.48918,2.4531 -4.86413,5.23361 -3.14935,6.36819 -3.70246,8.99663 -10.66615,16.17041 -6.95095,7.16039 -14.56211,10.98654 -14.56211,10.98654 -0.39116,0.19637 -0.54928,0.67328 -0.3529,1.06445 0.19638,0.39147 0.67361,0.54959 1.06476,0.3529 0,0 7.83592,-3.93103 14.98866,-11.29895 7.13998,-7.3555 7.7205,-10.04228 10.94987,-16.57273 1.17666,-2.37883 2.62366,-3.78024 4.13091,-4.50741 2.20668,-1.06412 4.5074,-0.66914 6.09626,0.058 1.58344,0.72462 3.29471,2.27108 3.86599,4.64353 0.39243,1.62839 0.24388,3.63104 -0.78997,6.01306 -2.76424,6.36755 -10.59473,18.80427 -16.53798,23.69391 -9.90551,8.14896 -19.4935,12.54192 -19.4935,12.54192 -0.39785,0.18234 -0.57319,0.65352 -0.39084,1.05138 0.18203,0.39817 0.65321,0.57318 1.05138,0.39083 z m 42.787,-53.74867 c 0,0 2.37979,1.95196 3.79873,6.68316 1.45114,4.83703 1.279,9.16655 -1.84261,15.38937 -3.34445,6.66499 -5.04361,11.44591 -3.06519,18.28272 1.59046,5.49567 6.23653,8.70431 16.61672,13.3303 0.39977,0.17821 0.86903,-0.002 1.04692,-0.40168 0.17884,-0.39976 -0.002,-0.86902 -0.40137,-1.04723 -9.73941,-4.34067 -14.24682,-7.16581 -15.73877,-12.32227 -1.85504,-6.41123 -0.17692,-10.8807 2.95936,-17.13029 3.35815,-6.69305 3.50511,-11.35379 1.94463,-16.55648 -1.59301,-5.30884 -4.32442,-7.4642 -4.32442,-7.4642 -0.34111,-0.27416 -0.84161,-0.21933 -1.11481,0.12178 -0.27512,0.34111 -0.22061,0.84066 0.12081,1.11482 z m -43.66495,51.16008 c 0,0 8.61695,-4.24026 14.78271,-8.82927 6.19987,-4.61483 13.49287,-13.61433 15.78021,-17.68595 2.07533,-3.69448 4.98813,-9.18695 5.55113,-10.91066 0.63663,-1.95196 -0.005,-5.59098 -3.23097,-7.30417 -3.22011,-1.70968 -6.60696,-0.0252 -8.11772,2.24111 -1.31215,1.96759 -3.57971,8.99185 -9.20703,15.30043 -5.59831,6.27575 -12.15842,11.2556 -18.92446,14.89589 -0.38542,0.20752 -0.52983,0.68891 -0.32262,1.07432 0.20754,0.38542 0.68891,0.53015 1.07433,0.32262 6.92066,-3.72381 13.63028,-8.81779 19.35642,-15.23699 5.69714,-6.38668 8.01507,-13.48427 9.34317,-15.4764 1.12947,-1.69342 3.64698,-2.9976 6.0545,-1.71956 2.40178,1.27453 2.94053,3.95716 2.46649,5.4099 -0.54864,1.68035 -3.40343,7.02586 -5.42648,10.62661 -2.2239,3.95813 -9.3167,12.70387 -15.3441,17.19023 -6.06216,4.51187 -14.53565,8.67817 -14.53565,8.67817 -0.39307,0.1935 -0.55502,0.66914 -0.36183,1.06189 0.19319,0.39275 0.66914,0.55502 1.0619,0.36183 z m 45.66251,-22.99225 c -8.2e-4,9.8e-4 -2.75978,5.64869 -0.13198,11.74303 1.71382,3.9763 5.73156,8.19455 14.4824,11.05157 0.41635,0.13581 0.86457,-0.0918 1.00069,-0.50784 0.13549,-0.41634 -0.0921,-0.86456 -0.50847,-1.00037 -8.12601,-2.65299 -11.92665,-6.47881 -13.51806,-10.17138 -2.33165,-5.40831 0.10137,-10.42036 0.10137,-10.42036 0.1916,-0.39339 0.0284,-0.86839 -0.36565,-1.0603 -0.39339,-0.19159 -0.86839,-0.0277 -1.0603,0.36565 z m -14.2057,16.95305 h 1.71032 c 0.24898,0 0.48393,-0.11731 0.63344,-0.31624 0.15015,-0.19924 0.19733,-0.45715 0.1288,-0.69656 l -0.47565,-1.65039 c -0.0784,-0.27289 -0.29711,-0.48297 -0.57286,-0.55087 -0.27608,-0.0676 -0.56713,0.0175 -0.7632,0.22283 l -4.05599,4.25205 c -0.21613,0.22603 -0.27926,0.55789 -0.16066,0.84735 0.11827,0.28947 0.39498,0.48234 0.70739,0.49286 3.28324,0.1103 8.88347,1.2012 8.88347,1.2012 0.32293,0.0631 0.65193,-0.0806 0.82503,-0.36087 0.17374,-0.28021 0.15589,-0.63886 -0.045,-0.90027 -3.72955,-4.86317 -2.75277,-11.88584 -2.75277,-11.88584 0.0497,-0.3631 -0.15589,-0.71282 -0.497,-0.84608 -0.3411,-0.13357 -0.72876,-0.0159 -0.93852,0.28437 -3.40725,4.87496 -10.44523,11.63081 -10.44523,11.63081 -0.31592,0.30349 -0.32612,0.80591 -0.023,1.12151 0.30349,0.31592 0.80559,0.32581 1.12119,0.0226 0,0 5.39875,-5.18961 9.09738,-9.8105 0.0376,2.3141 0.43068,5.78894 2.13813,8.85859 -1.49928,-0.25727 -3.68141,-0.60092 -5.59607,-0.78359 z m -28.51213,-0.3054 c 0,0 -1.59492,0.75266 -4.49784,2.33037 -0.38478,0.20881 -0.52728,0.69082 -0.31815,1.07561 0.2088,0.38446 0.69082,0.52696 1.0756,0.31815 2.85128,-1.54965 4.4175,-2.28957 4.4175,-2.28957 0.39594,-0.18713 0.56554,-0.66021 0.37873,-1.05584 -0.18713,-0.39593 -0.66022,-0.56554 -1.05584,-0.37872 z m 44.40073,-48.92121 c 0,0 3.80797,3.58259 5.74942,10.26256 2.2003,7.56749 -0.70836,13.91623 -2.41708,17.88392 -0.74853,1.73582 -1.85824,3.73147 -2.63036,5.89001 -1.2299,3.44327 -1.61851,7.27738 1.31055,11.17621 4.76117,6.33758 11.66556,7.40841 11.66556,7.40841 0.43261,0.0679 0.83875,-0.22793 0.90665,-0.66054 0.0676,-0.43228 -0.22761,-0.83842 -0.66021,-0.90664 0,0 -6.29296,-1.00293 -10.64384,-6.7941 -2.53791,-3.37824 -2.15121,-6.70611 -1.08453,-9.68969 0.75968,-2.12506 1.85664,-4.08691 2.59274,-5.79691 1.8101,-4.202 4.8144,-10.93744 2.48435,-18.95315 -2.08044,-7.15721 -6.19031,-10.97921 -6.19031,-10.97921 -0.31975,-0.2987 -0.82185,-0.28149 -1.1212,0.0386 -0.2987,0.31911 -0.28149,0.82184 0.0383,1.12055 z m 14.93732,48.52208 c 0,0 -3.19015,-1.24392 -6.1055,-3.32085 -1.85824,-1.32427 -3.62754,-2.97912 -4.27054,-4.89633 -0.13963,-0.41476 -0.58912,-0.63887 -1.00452,-0.49955 -0.41474,0.13899 -0.63822,0.58912 -0.49954,1.0042 0.73928,2.2054 2.71611,4.16023 4.85425,5.68342 3.07985,2.19424 6.45043,3.50703 6.45043,3.50703 0.40806,0.15908 0.86744,-0.043 1.02684,-0.45109 0.15907,-0.40774 -0.0434,-0.86807 -0.45142,-1.02683 z m -49.16603,-9.85642 c 0,0 -7.86556,6.10615 -15.05592,9.68332 -0.39179,0.19478 -0.55183,0.67137 -0.35673,1.06349 0.19511,0.39179 0.67138,0.55182 1.06349,0.35672 7.31628,-3.63964 15.32179,-9.85035 15.32179,-9.85035 0.34589,-0.26843 0.40869,-0.76701 0.14027,-1.1129 -0.26842,-0.3459 -0.76701,-0.4087 -1.1129,-0.14028 z m 11.73346,-16.51916 c 0,0 1.37209,-2.51751 2.22071,-4.37097 0.39084,-0.85372 0.87412,-1.92199 1.54582,-2.69475 0.5174,-0.59486 1.15722,-1.00961 2.01158,-0.77307 1.81106,0.50051 1.3638,2.29594 0.63408,3.76334 -1.30163,2.61729 -3.47324,6.9857 -5.71595,10.40857 -1.81584,2.77158 -8.13079,11.49723 -20.74093,19.28278 -0.37267,0.22985 -0.48839,0.71888 -0.25822,1.09155 0.22985,0.37234 0.71919,0.48806 1.09154,0.25821 12.91682,-7.9749 19.37459,-16.92435 21.23474,-19.76351 2.27778,-3.47643 4.48669,-7.91306 5.80904,-10.57083 0.80527,-1.61851 1.0992,-3.46304 0.29456,-4.68944 -0.37872,-0.57701 -0.98762,-1.05042 -1.92614,-1.30991 -1.52351,-0.42113 -2.70846,0.19988 -3.63168,1.26178 -0.76957,0.88464 -1.34244,2.09637 -1.79034,3.07507 -0.83014,1.81073 -2.17161,4.27213 -2.17161,4.27213 -0.20945,0.38446 -0.0673,0.8668 0.3172,1.07656 0.38446,0.20881 0.8668,0.067 1.0756,-0.31751 z m 28.36549,13.03286 c 0,0 -2.50379,5.29418 2.36033,8.39315 4.3579,2.77605 6.64395,3.72127 6.64395,3.72127 0.40455,0.168 0.86903,-0.0239 1.03703,-0.42814 0.16737,-0.40423 -0.0242,-0.86903 -0.42845,-1.03671 0,0 -2.19935,-0.91844 -6.39975,-3.59439 -3.69289,-2.35268 -1.77982,-6.37552 -1.77982,-6.37552 0.18745,-0.39563 0.0185,-0.86934 -0.37713,-1.05616 -0.39594,-0.18777 -0.86935,-0.0188 -1.05616,0.3765 z m -55.34901,12.02005 c 0,0 7.48333,-3.49619 15.40244,-10.35596 0.33091,-0.28659 0.36693,-0.78805 0.08,-1.11896 -0.2866,-0.33091 -0.78774,-0.36661 -1.11864,-0.08 -7.73263,6.69846 -15.03584,10.11783 -15.03584,10.11783 -0.39657,0.18553 -0.56808,0.65831 -0.38255,1.05456 0.18554,0.39658 0.65799,0.56809 1.05457,0.38255 z m 21.82802,-42.6563 c 0,0 2.77508,-2.75851 7.3982,-3.71584 4.64194,-0.96212 8.61313,0.2834 12.14695,2.75117 3.51818,2.45566 5.87183,6.59741 6.1428,10.82236 0.27607,4.3123 -0.11987,7.11257 -3.45539,12.93308 -3.0416,5.30789 -3.4691,12.44468 -1.85664,18.37295 0.11508,0.4224 0.55183,0.67201 0.97358,0.55693 0.42272,-0.11477 0.67266,-0.55087 0.55758,-0.97328 -1.50662,-5.53837 -1.13937,-12.20877 1.70234,-17.16823 3.56219,-6.2174 3.95653,-9.2166 3.66197,-13.82251 -0.30126,-4.69262 -2.91121,-9.29374 -6.81769,-12.02229 -3.89054,-2.71674 -8.26724,-4.06236 -13.37779,-3.00397 -5.13001,1.06349 -8.19774,4.14844 -8.19774,4.14844 -0.30955,0.30923 -0.30955,0.81196 0,1.12119 0.30954,0.30923 0.81228,0.30923 1.12183,0 z m 43.42299,38.49033 c 0,0 -1.96535,-1.0686 -3.68491,-2.43909 -1.03799,-0.82758 -2.01828,-1.74155 -2.26535,-2.60644 -0.2987,-1.04628 0.16483,-2.15376 0.75905,-3.25933 0.70581,-1.31469 1.63604,-2.61314 2.18692,-3.78597 1.11895,-2.38138 3.95907,-9.63677 3.27367,-16.60047 -0.68476,-6.95317 -3.29886,-17.82207 -13.42179,-24.95568 -4.49687,-3.16816 -12.9997,-7.15912 -22.32469,-6.54704 -9.44549,0.62037 -13.33412,3.91158 -13.33412,3.91158 -0.33633,0.28022 -0.38223,0.7804 -0.10233,1.11737 0.2799,0.33632 0.7804,0.38191 1.11673,0.10201 0,0 3.64156,-2.97146 12.42333,-3.54752 8.90131,-0.58434 17.01521,3.2367 21.30711,6.26044 9.65207,6.80143 12.10422,17.18449 12.7571,23.81378 0.6513,6.6178 -2.068,13.50817 -3.13053,15.77128 -0.65608,1.39727 -1.85729,2.97242 -2.56246,4.54183 -0.55023,1.22672 -0.80399,2.45598 -0.47341,3.61351 0.24325,0.85086 0.96786,1.78428 1.90416,2.64534 1.96184,1.80468 4.81311,3.35784 4.81311,3.35784 0.38447,0.20913 0.8668,0.0666 1.07593,-0.31784 0.20881,-0.38446 0.0666,-0.86647 -0.31752,-1.0756 z m -36.59192,-0.17183 c 0,0 4.1223,-4.88007 6.61877,-8.04918 2.51686,-3.1959 4.98559,-8.6211 7.07877,-12.77847 2.20254,-4.37606 1.09761,-8.96157 1.09761,-8.96157 -0.10201,-0.42527 -0.53111,-0.68795 -0.95638,-0.58594 -0.4259,0.10202 -0.68795,0.53111 -0.58594,0.95638 0,0 0.96466,4.03081 -0.97199,7.87799 -2.04761,4.06747 -4.4462,9.38333 -6.90855,12.51004 -2.48243,3.15254 -6.58434,8.0071 -6.58434,8.0071 -0.28213,0.33442 -0.24068,0.83524 0.0941,1.11769 0.33441,0.28277 0.83556,0.24069 1.118,-0.094 z m 33.2564,-3.14712 c 0,0 1.09696,1.42915 2.93894,2.73619 0.35641,0.25344 0.85182,0.16929 1.10558,-0.18776 0.25312,-0.35705 0.16896,-0.85246 -0.18745,-1.10589 -1.62744,-1.15435 -2.60103,-2.41103 -2.60103,-2.41103 -0.26683,-0.34653 -0.76542,-0.41124 -1.11227,-0.14377 -0.34684,0.26714 -0.41155,0.76573 -0.14377,1.11226 z m 3.52871,-2.79262 c 0.0434,-0.1527 0.10553,-0.35609 0.16992,-0.53015 0.37458,-1.00515 1.00036,-2.29881 1.00036,-2.29881 0.19033,-0.39435 0.0255,-0.86935 -0.36883,-1.05935 -0.39403,-0.19031 -0.86903,-0.0255 -1.05935,0.36884 0,0 -1.08453,2.26057 -1.32522,3.2689 -0.08,0.33473 -0.0717,0.59965 -0.0335,0.75394 0.0733,0.2933 0.24483,0.46927 0.43834,0.57319 0.32549,0.17566 1.46485,1.3453 1.46485,1.3453 0.31018,0.30955 0.81291,0.30955 1.12214,0 0.30923,-0.30954 0.30923,-0.81228 0,-1.12183 0,0 -0.83395,-0.81674 -1.40874,-1.30003 z m -11.74207,1.56559 c 0,0 -0.18618,-2.7397 1.5946,-5.86354 1.96599,-3.44901 3.56728,-6.32101 4.24376,-11.12298 0.67265,-4.76754 0.54131,-7.90381 0.54131,-7.90381 -0.0182,-0.43739 -0.38701,-0.77881 -0.8244,-0.76064 -0.43738,0.0179 -0.77849,0.38765 -0.76063,0.82503 0,0 0.12081,3.02215 -0.52729,7.6185 -0.64204,4.56096 -2.18309,7.28184 -4.05089,10.55776 -2.0527,3.59979 -1.79894,6.76731 -1.79894,6.76731 0.0328,0.43675 0.41379,0.76478 0.85053,0.73227 0.43643,-0.0325 0.76478,-0.41347 0.73195,-0.8499 z m -54.84723,0.3309 c 0,0 8.17957,-4.8399 12.90215,-9.8596 0.29999,-0.31911 0.28468,-0.82184 -0.0344,-1.12151 -0.31879,-0.3003 -0.8212,-0.28468 -1.12119,0.0344 -4.59252,4.88198 -12.55371,9.58098 -12.55371,9.58098 -0.37682,0.22284 -0.50178,0.70964 -0.27927,1.08644 0.22284,0.37681 0.70963,0.5021 1.08645,0.27926 z m 32.82125,-23.23899 c 0,0 -3.86249,10.41272 -14.66158,21.42889 -0.30636,0.31274 -0.30157,0.81515 0.0112,1.12151 0.31242,0.30668 0.81515,0.30158 1.12151,-0.0108 11.07484,-11.29768 15.0167,-21.98965 15.0167,-21.98965 0.15175,-0.41028 -0.058,-0.86743 -0.4683,-1.01918 -0.4106,-0.15174 -0.86775,0.0587 -1.01949,0.46926 z m 33.70365,10.34099 c 0,0 -2.46458,6.67965 -4.5431,10.58772 -0.20562,0.38669 -0.059,0.86711 0.32708,1.07274 0.38702,0.20562 0.86775,0.0587 1.07337,-0.32773 2.11678,-3.98043 4.63141,-10.78346 4.63141,-10.78346 0.1508,-0.4106 -0.059,-0.86775 -0.46926,-1.01853 -0.4106,-0.15175 -0.86775,0.0577 -1.0195,0.46926 z m -48.06046,9.02947 c 0,0 5.55431,-6.26937 7.91943,-9.89787 0.2391,-0.36661 0.13517,-0.8585 -0.23144,-1.0976 -0.36661,-0.23909 -0.85851,-0.13484 -1.0976,0.23177 -2.32145,3.56059 -7.77757,9.71168 -7.77757,9.71168 -0.29042,0.32708 -0.26014,0.82918 0.0676,1.1196 0.3274,0.29042 0.82918,0.26013 1.1196,-0.0676 z m 40.58989,-1.1467 c 0,0 2.11869,-3.3419 4.05536,-9.57397 2.05971,-6.62737 0.58753,-14.2736 -1.07753,-19.12625 -1.66792,-4.86158 -7.23371,-12.6382 -14.72245,-16.29347 -7.45751,-3.6406 -15.40978,-4.21188 -23.64577,-1.91466 -8.27043,2.30709 -15.44708,10.0021 -18.18008,16.21377 -2.58445,5.87342 -4.54343,8.63831 -6.32197,10.21601 -0.32772,0.29042 -0.35768,0.7922 -0.0673,1.1196 0.29042,0.3274 0.7922,0.35736 1.1196,0.0676 1.87896,-1.66633 3.99191,-4.56032 6.72141,-10.76434 2.58094,-5.86545 9.34507,-13.14571 17.15452,-15.32497 7.84484,-2.18883 15.41998,-1.65581 22.52427,1.81201 7.07303,3.45284 12.34203,10.79048 13.91782,15.38364 1.5793,4.60272 3.01641,11.85301 1.06254,18.14023 -1.85984,5.98373 -3.8813,9.19747 -3.8813,9.19747 -0.23431,0.37076 -0.12337,0.86106 0.24643,1.09441 0.37044,0.23368 0.86106,0.12338 1.09441,-0.24706 z m -59.20098,-1.30737 c 0,0 7.09377,-4.73852 10.35278,-8.51047 3.25965,-3.77387 6.82693,-9.40246 7.7425,-11.38949 0.877,-1.90415 2.10913,-4.54024 2.98645,-5.69586 0.2646,-0.34844 0.19669,-0.84607 -0.15207,-1.11131 -0.34875,-0.2646 -0.84671,-0.19606 -1.11131,0.15238 -0.92417,1.21683 -2.23983,3.98427 -3.16401,5.99043 -0.88592,1.92359 -4.34737,7.36537 -7.50213,11.0165 -3.15509,3.65208 -10.03207,8.22739 -10.03207,8.22739 -0.36406,0.24291 -0.46289,0.73609 -0.21997,1.09982 0.24292,0.36502 0.73577,0.46289 1.09983,0.22061 z m 34.48598,-37.31016 c 0,0 5.94452,-0.1103 11.91837,4.54662 5.99105,4.66903 8.09094,10.28136 8.13812,15.78658 0.0475,5.55304 -2.28989,10.61865 -4.49401,14.47125 -0.21806,0.38032 -0.0858,0.86521 0.29361,1.08231 0.38031,0.21773 0.86519,0.0858 1.08293,-0.29393 2.32527,-4.06397 4.75383,-9.4168 4.70346,-15.27333 -0.0507,-5.93304 -2.29179,-11.99201 -8.74893,-17.02414 -6.47148,-5.04521 -12.92862,-4.88103 -12.92862,-4.88103 -0.43737,0.01 -0.78518,0.37299 -0.7753,0.81037 0.01,0.43834 0.37299,0.78519 0.81037,0.7753 z m -34.59341,34.17452 c 0,0 5.91901,-4.4226 8.46393,-7.2216 2.55385,-2.80919 5.80489,-7.68448 7.43009,-11.07484 1.54774,-3.2284 2.76265,-6.47148 6.14536,-9.16973 3.3505,-2.67116 6.32866,-3.72222 10.13823,-4.05121 3.80064,-0.32708 8.91119,0.59167 13.25697,4.43663 0.32803,0.28946 0.82981,0.25854 1.11959,-0.0685 0.29074,-0.32836 0.2595,-0.83014 -0.0685,-1.11992 -4.73503,-4.18829 -10.304,-5.18547 -14.44416,-4.82811 -4.13027,0.35577 -7.359,1.49514 -10.991,4.39168 -3.59948,2.87009 -4.94,6.28882 -6.58688,9.7238 -1.56941,3.27272 -4.7076,7.98064 -7.17346,10.69356 -2.47542,2.72249 -8.23887,7.01694 -8.23887,7.01694 -0.35099,0.26173 -0.42303,0.75872 -0.1613,1.10971 0.26172,0.35099 0.75904,0.42368 1.11003,0.16163 z m 15.07154,-2.42059 c 0,0 4.90174,-5.61711 7.5117,-10.87718 2.43525,-4.90717 3.74293,-9.54496 10.38369,-9.84048 6.47658,-0.28819 9.15412,4.71876 9.15412,4.71876 0.20498,0.3867 0.68572,0.53461 1.07242,0.33059 0.38701,-0.20499 0.53557,-0.68477 0.33058,-1.07242 0,0 -3.08495,-5.89733 -10.62725,-5.56197 -7.37813,0.32836 -9.02915,5.269 -11.73442,10.72067 -2.52994,5.09812 -7.28568,10.53895 -7.28568,10.53895 -0.28787,0.32995 -0.25376,0.83109 0.0759,1.11895 0.32963,0.2882 0.83109,0.25376 1.11896,-0.0759 z m -14.98674,-0.8805 c 0,0 5.43987,-4.28042 8.00519,-7.70074 2.55384,-3.40502 5.53232,-8.59847 6.97963,-12.08924 1.36762,-3.2979 7.62392,-10.76752 16.63394,-11.03531 0.43834,-0.0131 0.78263,-0.37936 0.76956,-0.81674 -0.0131,-0.43771 -0.37872,-0.782 -0.81611,-0.76893 -9.78787,0.29138 -16.56698,8.43046 -18.05287,12.014 -1.40588,3.39099 -4.30179,8.4362 -6.78326,11.74462 -2.46969,3.29281 -7.71573,7.40459 -7.71573,7.40459 -0.3443,0.27097 -0.40423,0.76956 -0.13389,1.11385 0.27033,0.3443 0.76924,0.40392 1.11354,0.1339 z m 0.22985,-3.6693 c 0,0 5.03532,-4.03559 8.21145,-9.30044 3.06518,-5.08091 4.72003,-10.2887 9.56057,-14.67592 4.62663,-4.19403 11.98786,-7.53688 21.29468,-5.27218 6.07363,1.47792 9.38715,4.79559 9.38715,4.79559 0.30828,0.31019 0.81101,0.31242 1.12215,0.004 0.30987,-0.3086 0.31241,-0.81037 0.004,-1.12152 0,0 -3.56793,-3.6202 -10.13855,-5.2199 -9.93675,-2.41804 -17.79466,1.16072 -22.73466,5.63848 -4.9671,4.50166 -6.70803,9.81784 -9.85323,15.03137 -3.03395,5.02958 -7.84516,8.8825 -7.84516,8.8825 -0.34174,0.27321 -0.39689,0.77275 -0.12305,1.11482 0.27352,0.34174 0.77307,0.39658 1.11482,0.12305 z m 0.3003,-3.90584 c 0,0 3.80861,-4.01455 5.74432,-7.07974 0.23367,-0.36979 0.12305,-0.8601 -0.24707,-1.09345 -0.37012,-0.23432 -0.86042,-0.12338 -1.09409,0.24642 -1.86972,2.96063 -5.55336,6.83491 -5.55336,6.83491 -0.30158,0.31751 -0.28851,0.81929 0.0287,1.12119 0.31752,0.30126 0.81993,0.28819 1.12151,-0.0293 z m 56.62545,-13.93249 c 0,0 1.55795,3.22426 2.47925,7.01502 0.10297,0.42527 0.53207,0.68636 0.95829,0.58275 0.42495,-0.10265 0.68636,-0.53206 0.58243,-0.95733 -0.96211,-3.96195 -2.59178,-7.33095 -2.59178,-7.33095 -0.19095,-0.39434 -0.66499,-0.55916 -1.05935,-0.36884 -0.39402,0.19096 -0.55979,0.665 -0.36884,1.05935 z m -49.24509,4.04356 c 0,0 1.89522,-4.14494 3.47866,-6.66658 1.55825,-2.4818 5.81126,-7.56717 12.16,-10.21442 6.35417,-2.64917 11.8562,-2.6973 18.42842,-0.65958 6.07363,1.88278 11.63209,6.74532 14.22228,11.67034 0.20403,0.38765 0.68381,0.53716 1.07146,0.33314 0.38701,-0.20339 0.53621,-0.68381 0.33218,-1.07083 -2.76074,-5.25082 -8.68167,-10.44044 -15.15666,-12.44819 -6.95636,-2.15695 -12.78101,-2.09319 -19.50816,0.71091 -6.73257,2.8076 -11.2403,8.20347 -12.89291,10.83542 -1.62744,2.59114 -3.57749,6.85053 -3.57749,6.85053 -0.18235,0.39817 -0.007,0.86902 0.39116,1.05105 0.39817,0.18203 0.86903,0.007 1.05106,-0.39179 z m 7.9019,-20.6826 c 0,0 -5.64964,3.39418 -9.38588,8.62875 -3.04319,4.26352 -4.17713,7.88373 -5.55591,10.14683 -0.22794,0.37363 -0.10935,0.86266 0.2646,1.09027 0.37362,0.22762 0.86201,0.10935 1.08995,-0.2646 1.36538,-2.24079 2.47956,-5.82943 5.49247,-10.05119 3.5472,-4.96902 8.91151,-8.19041 8.91151,-8.19041 0.37522,-0.22507 0.497,-0.7125 0.27161,-1.08772 -0.22538,-0.37554 -0.71313,-0.497 -1.08835,-0.27193 z m 38.96979,0.74183 c 0,0 1.97428,1.61691 4.02124,3.98681 0.28627,0.33123 0.78742,0.36821 1.11865,0.0826 0.33154,-0.28659 0.3682,-0.78773 0.0816,-1.11896 -2.14548,-2.48435 -4.21667,-4.17777 -4.21667,-4.17777 -0.33888,-0.27735 -0.83906,-0.22762 -1.11577,0.1119 -0.27735,0.33855 -0.22762,0.83906 0.11094,1.11545 z m -46.21562,3.53636 c 0,0 8.34439,-8.80408 20.43586,-10.27658 13.36855,-1.62712 23.47616,5.38057 23.47616,5.38057 0.35992,0.24993 0.85437,0.16099 1.10399,-0.19892 0.24993,-0.35992 0.16098,-0.85469 -0.19893,-1.1043 0,0 -10.57784,-7.35549 -24.57314,-5.65155 -12.65924,1.54072 -21.3951,10.75956 -21.3951,10.75956 -0.30126,0.31751 -0.28787,0.82025 0.03,1.12151 0.31783,0.30094 0.82025,0.28723 1.12119,-0.0303 z m 10.49432,-10.39485 c 0,0 13.53241,-6.7482 28.89882,0.18043 0.39914,0.18044 0.86904,0.003 1.04852,-0.39657 0.17979,-0.39913 0.002,-0.86935 -0.39658,-1.04947 -16.0904,-7.25539 -30.26007,-0.15366 -30.26007,-0.15366 -0.39148,0.19606 -0.55056,0.67329 -0.35482,1.06445 0.19574,0.39148 0.67265,0.55087 1.06413,0.35482"
         id="path1-4"
         style="fill:#0000ff;stroke-width:0.0816108" /><path
         fill-rule="evenodd"
         fill="#3a7ac4"
         fill-opacity="1"
         d="m 637.3283,398.0777 c 0,0 -7.53816,0 -10.97091,0 v -9.58513 c 0,-0.92004 -0.74693,-1.66728 -1.66729,-1.66728 -0.92003,0 -1.66728,0.74724 -1.66728,1.66728 v 11.25241 c 0,0.92067 0.74661,1.66728 1.66728,1.66728 h 12.6382 c 0.92003,0 1.66728,-0.74725 1.66728,-1.66728 0,-0.92036 -0.74725,-1.66728 -1.66728,-1.66728 z m 67.93046,-9.58513 c 0,0 0,6.45236 0,9.58513 h -10.97091 c -0.91972,0 -1.66728,0.74692 -1.66728,1.66728 0,0.92003 0.74756,1.66728 1.66728,1.66728 h 12.63819 c 0.92068,0 1.6676,-0.74661 1.6676,-1.66728 v -11.25241 c 0,-0.92004 -0.74692,-1.66728 -1.6676,-1.66728 -0.91971,0 -1.66728,0.74724 -1.66728,1.66728 z m -10.97091,-98.98624 h 10.97091 V 301.513 c 0,0.91972 0.74757,1.66728 1.66728,1.66728 0.92068,0 1.6676,-0.74756 1.6676,-1.66728 v -13.67395 c 0,-0.92067 -0.74692,-1.66728 -1.6676,-1.66728 h -12.63819 c -0.91972,0 -1.66728,0.74756 -1.66728,1.66728 0,0.92067 0.74756,1.66728 1.66728,1.66728 z M 626.35739,301.513 v -12.00667 c 3.43275,0 10.97091,0 10.97091,0 0.92003,0 1.66728,-0.74661 1.66728,-1.66728 0,-0.91972 -0.74725,-1.66728 -1.66728,-1.66728 h -12.6382 c -0.92067,0 -1.66728,0.74661 -1.66728,1.66728 V 301.513 c 0,0.91972 0.74725,1.66728 1.66728,1.66728 0.92036,0 1.66729,-0.74756 1.66729,-1.66728"
         id="path2-5"
         style="fill:#0000ff;stroke-width:0.0816108" /></g><g
       id="text21"
       style="font-weight:bold;font-size:198.889px;font-family:Sans;-inkscape-font-specification:'Sans, Bold';font-variant-ligatures:none;letter-spacing:-0.117012px;stroke-width:4.66142;stroke-linecap:round;stroke-linejoin:round"
       aria-label="PROOFLY"><path
         style="font-weight:normal;font-family:'Press Start 2P';-inkscape-font-specification:'Press Start 2P, Normal'"
         d="M -256.68683,817.42653 V 643.39865 h 149.16676 v 24.86113 h 24.861123 v 74.58337 h -24.861123 v 24.86113 h -99.44451 v 49.72225 z m 49.72225,-74.58338 h 74.58338 v -74.58337 h -74.58338 z m 149.049373,74.58338 V 643.39865 H 91.251549 v 24.86113 h 24.861121 v 74.58337 H 66.390423 v 24.86113 h 24.861126 v 24.86113 h 24.861121 v 24.86112 H 41.529297 V 792.56541 H 16.668171 V 767.70428 H -8.192955 v 49.72225 z M -8.192955,742.84315 H 41.529297 V 717.98203 H 66.390423 V 668.25978 H -8.192955 Z M 165.71754,817.42653 V 792.56541 H 140.85641 V 668.25978 h 24.86113 v -24.86113 h 124.30563 v 24.86113 h 24.86113 v 124.30563 h -24.86113 v 24.86112 z m 24.86113,-24.86112 h 74.58337 V 668.25978 h -74.58337 z m 173.91045,24.86112 V 792.56541 H 339.62799 V 668.25978 h 24.86113 v -24.86113 h 124.30563 v 24.86113 h 24.86112 v 124.30563 h -24.86112 v 24.86112 z m 24.86112,-24.86112 h 74.58338 V 668.25978 h -74.58338 z"
         id="path49" /><path
         style="font-weight:normal;font-family:'Press Start 2P';-inkscape-font-specification:'Press Start 2P, Normal';letter-spacing:-29.2141px"
         d="M 538.39966,817.42653 V 643.39865 h 174.02788 v 24.86113 H 588.12191 v 49.72225 h 99.4445 v 24.86112 h -99.4445 v 74.58338 z"
         id="path50" /><path
         style="font-weight:normal;font-family:'Press Start 2P';-inkscape-font-specification:'Press Start 2P, Normal';letter-spacing:-61.9775px"
         d="M 732.93528,817.42653 V 643.39865 h 49.72226 v 149.16676 h 99.4445 v 24.86112 z m 186.63339,0 v -74.58338 h -24.86113 v -24.86112 h -24.86112 v -74.58338 h 49.72225 v 74.58338 h 49.72225 v -74.58338 h 49.72228 v 74.58338 h -24.86115 v 24.86112 h -24.86113 v 74.58338 z"
         id="path51" /></g><g
       id="g43"
       transform="matrix(0.82691817,0,0,0.82691817,-124.03792,445.89493)"
       style="fill:#ff0000"><path
         fill-rule="evenodd"
         fill="#429fd2"
         fill-opacity="1"
         d="m 664.66409,394.64207 c 0,0 0.39817,-0.5802 1.0772,-0.56713 0.87572,0.0169 1.33828,0.7211 1.33828,0.7211 0.23846,0.36758 0.72972,0.47278 1.09697,0.23496 0.36821,-0.23814 0.47245,-0.72939 0.23495,-1.09697 0,0 -0.90664,-1.41161 -2.63928,-1.44508 -1.51139,-0.029 -2.40815,1.24456 -2.40815,1.24456 -0.25057,0.35897 -0.16323,0.85373 0.19573,1.10462 0.35832,0.25057 0.85373,0.1629 1.1043,-0.19606 z m -5.01333,-0.029 c 0,0 2.84331,-3.22427 6.28818,-3.09324 2.9941,0.11413 5.74049,3.157 5.74049,3.157 0.2952,0.3223 0.79794,0.34365 1.12055,0.0472 0.3223,-0.29616 0.34334,-0.79825 0.0472,-1.12055 0,0 -3.29694,-3.53349 -6.84797,-3.66867 -4.10668,-0.15652 -7.53051,3.62021 -7.53051,3.62021 -0.29201,0.32644 -0.26428,0.82823 0.0619,1.12024 0.32612,0.29201 0.8279,0.26428 1.12023,-0.0622 z m -3.33903,-1.12438 c 0,0 2.73652,-1.71 3.47356,-2.10116 0.38702,-0.20498 0.53462,-0.6854 0.329,-1.07241 -0.20499,-0.3867 -0.68573,-0.53398 -1.0721,-0.329 -0.75745,0.40168 -3.57079,2.15727 -3.57079,2.15727 -0.3714,0.23176 -0.48457,0.72143 -0.25249,1.09282 0.23177,0.37139 0.72143,0.48456 1.09282,0.25248 z m 6.38796,-4.00435 c 0,0 2.68487,-1.69565 5.72104,-0.0641 3.43085,1.84357 6.65128,3.96704 6.65128,3.96704 0.36534,0.24102 0.85755,0.13996 1.09825,-0.22538 0.241,-0.36534 0.14058,-0.85787 -0.22508,-1.09887 0,0 -3.28005,-2.16269 -6.77305,-4.04006 -3.88799,-2.08936 -7.32617,0.12433 -7.32617,0.12433 -0.36884,0.23559 -0.47722,0.72652 -0.24164,1.09537 0.23591,0.36916 0.72653,0.47723 1.09537,0.24164 z m -9.26059,2.45757 c 0,0 4.19594,-2.66319 6.63693,-4.03495 2.27107,-1.27612 5.60246,-3.31065 9.52551,-1.09601 4.21922,2.38202 8.70047,5.28908 8.70047,5.28908 0.36725,0.23814 0.85947,0.13358 1.09761,-0.23367 0.23845,-0.36725 0.13325,-0.85883 -0.23399,-1.09728 0,0 -4.52462,-2.93448 -8.784,-5.33946 -4.55619,-2.57233 -8.44513,-0.38796 -11.08281,1.09442 -2.46777,1.38675 -6.70994,4.07862 -6.70994,4.07862 -0.36948,0.23463 -0.47915,0.72494 -0.24451,1.09474 0.23463,0.36948 0.72493,0.47914 1.09473,0.24451 z m -2.97019,-1.59236 c 0,0 5.64103,-3.25296 8.35873,-4.75575 2.56309,-1.41767 5.7016,-3.60489 10.80897,-1.58535 5.40767,2.13846 8.59272,5.24732 11.61551,6.60441 0.39913,0.17916 0.86934,8.2e-4 1.04882,-0.3988 0.17885,-0.39913 0,-0.86903 -0.39912,-1.04851 -3.03905,-1.36411 -6.24482,-4.48222 -11.68246,-6.63247 -5.73826,-2.26885 -9.28004,0.0797 -12.15969,1.67238 -2.72535,1.50757 -8.38328,4.76977 -8.38328,4.76977 -0.37904,0.21869 -0.50943,0.70421 -0.29073,1.08326 0.21869,0.37936 0.70389,0.50975 1.08325,0.29106 z m 27.39158,-4.92789 c 0,0 3.8153,2.26405 5.9069,3.29758 0.39275,0.19415 0.86934,0.0328 1.06253,-0.35959 0.19446,-0.39244 0.0328,-0.86872 -0.35896,-1.06254 -2.05493,-1.01504 -5.80074,-3.23957 -5.80074,-3.23957 -0.37713,-0.22347 -0.86361,-0.0991 -1.08708,0.27736 -0.22379,0.37648 -0.0998,0.86328 0.27735,1.08676 z m -9.17548,-6.1546 c 0,0 -4.77582,-1.71383 -11.00566,1.83368 -5.83166,3.32054 -8.61089,5.23298 -10.45797,6.08383 -0.39754,0.18299 -0.5716,0.65481 -0.38861,1.05234 0.1833,0.39753 0.6548,0.5716 1.05233,0.38829 1.8678,-0.86042 4.6821,-2.78816 10.57944,-6.14599 5.49916,-3.13118 9.6983,-1.71447 9.6983,-1.71447 0.41283,0.14441 0.86583,-0.0743 1.00929,-0.48743 0.14441,-0.41348 -0.0743,-0.86616 -0.48712,-1.01025 z m -22.72031,7.39502 c 0,0 6.74532,-3.62626 9.27494,-5.20014 2.4225,-1.50757 7.49511,-4.63747 14.69313,-3.14202 4.20295,0.8735 6.48167,3.16466 9.70275,5.1571 3.59247,2.22262 6.17469,3.32724 6.17469,3.32724 0.40231,0.17246 0.86903,-0.014 1.0415,-0.41635 0.17214,-0.40231 -0.014,-0.86902 -0.41635,-1.04149 0,0 -2.49391,-1.0705 -5.96588,-3.21852 -3.3811,-2.0916 -5.80169,-4.44396 -10.21441,-5.36081 -7.76259,-1.61309 -13.24104,1.72211 -15.85354,3.34795 -2.50571,1.5589 -9.18759,5.14977 -9.18759,5.14977 -0.38574,0.20721 -0.53047,0.68859 -0.32325,1.07433 0.20721,0.38542 0.68859,0.53015 1.07401,0.32294 z m -2.21178,-2.02943 c 0,0 7.72306,-4.12932 11.20586,-6.29169 3.32181,-2.0629 10.20645,-5.22436 16.62979,-2.35555 7.07241,3.15891 12.52344,7.04531 16.12897,8.72279 0.39722,0.18458 0.86903,0.0121 1.05425,-0.38479 0.18458,-0.39689 0.0124,-0.86902 -0.3851,-1.0536 -3.61032,-1.6794 -9.06932,-5.56962 -16.15161,-8.73267 -6.98983,-3.12225 -14.49771,0.21104 -18.11313,2.45597 -3.45475,2.14547 -11.11692,6.24036 -11.11692,6.24036 -0.38606,0.20657 -0.53206,0.68731 -0.32549,1.07337 0.20626,0.38606 0.68732,0.53206 1.07338,0.32581 z m 33.0868,-1.68833 c 0,0 -2.86722,-1.86142 -5.40353,-2.90738 -0.40391,-0.16705 -0.86839,0.0261 -1.03576,0.43068 -0.1664,0.40456 0.0261,0.86872 0.43101,1.03576 2.41485,0.99591 5.14307,2.77095 5.14307,2.77095 0.36725,0.23876 0.85851,0.1342 1.0976,-0.23273 0.23846,-0.36693 0.1339,-0.85882 -0.23239,-1.09728 z m -24.4029,-6.23047 c 0,0 5.20077,-3.6253 9.86215,-4.17012 4.66967,-0.54577 9.13786,-0.24739 14.4958,2.88603 5.5846,3.26666 9.80222,5.87469 12.81608,7.07591 0.40646,0.16194 0.86839,-0.0367 1.03066,-0.44313 0.16162,-0.40678 -0.0367,-0.86838 -0.44313,-1.03065 -2.96476,-1.18177 -7.10906,-3.75793 -12.60312,-6.97135 -5.72169,-3.34668 -10.49273,-3.67535 -15.48087,-3.0926 -4.99579,0.58402 -10.58167,4.44237 -10.58167,4.44237 -0.3596,0.24961 -0.44918,0.74438 -0.19956,1.10397 0.24961,0.3596 0.74406,0.44886 1.10366,0.19957 z m -10.65372,5.7644 c 0,0 5.36974,-2.68519 8.07564,-4.17427 0.38351,-0.21135 0.52346,-0.69401 0.31242,-1.07751 -0.21104,-0.38351 -0.69369,-0.52346 -1.0772,-0.31242 -2.68742,1.4792 -8.02017,4.14525 -8.02017,4.14525 -0.3918,0.19575 -0.55056,0.67265 -0.35482,1.06413 0.19574,0.39148 0.67265,0.55056 1.06413,0.35482 z m -1.33797,-2.14356 c 0,0 9.62912,-5.36304 12.05385,-7.00195 2.33738,-1.58025 9.65302,-4.80961 19.09788,-2.77031 5.84665,1.26242 12.48741,5.95568 12.48741,5.95568 0.35736,0.25216 0.85277,0.16641 1.10493,-0.19127 0.25217,-0.35769 0.16641,-0.8531 -0.19096,-1.10526 0,0 -6.95253,-4.88963 -13.06664,-6.20975 -10.05376,-2.17065 -17.83292,1.32458 -20.32109,3.00653 -2.40083,1.62329 -11.93718,6.93023 -11.93718,6.93023 -0.38255,0.21294 -0.51995,0.69655 -0.30699,1.0791 0.21295,0.38223 0.69624,0.51995 1.07879,0.307 z m 46.4155,-2.18596 c 0,0 2.82705,1.37145 4.28297,2.0712 0.39403,0.18968 0.86807,0.0236 1.0584,-0.37108 0.18936,-0.39466 0.0229,-0.86871 -0.3714,-1.05839 -1.45337,-0.69911 -4.27724,-2.06896 -4.27724,-2.06896 -0.39402,-0.19096 -0.86902,-0.0265 -1.05998,0.36757 -0.19096,0.3937 -0.0261,0.8687 0.36725,1.05966 z m 6.20242,-1.86684 c 0,0 -8.58539,-4.20359 -12.48964,-7.09823 -3.7576,-2.78561 -6.3446,-6.39369 -6.71919,-11.52338 -0.41442,-5.67514 0.68541,-11.35283 2.77063,-15.42285 2.22326,-4.34067 4.22336,-7.73995 3.3062,-13.1744 -0.93535,-5.5371 -5.0739,-10.85487 -11.86864,-12.00476 -6.81864,-1.15498 -12.32004,2.48499 -14.63893,6.94234 -3.0722,5.90626 -3.84049,8.17351 -7.64336,13.14348 -3.58131,4.68051 -7.7033,8.16108 -14.04025,12.18711 -0.36948,0.23495 -0.47882,0.72557 -0.24419,1.09473 0.23495,0.3698 0.72525,0.47915 1.09505,0.24419 6.52599,-4.14557 10.76115,-7.74218 14.44925,-12.562 3.87173,-5.05987 4.66329,-7.36314 7.79096,-13.37461 2.05175,-3.94409 6.93437,-7.13265 12.96687,-6.11188 6.05482,1.02524 9.73624,5.77078 10.5686,10.70504 0.85054,5.03692 -1.09282,8.16427 -3.15349,12.18678 -2.19839,4.29286 -3.3776,10.27755 -2.94022,16.26224 0.41124,5.63815 3.22586,9.6205 7.35549,12.68218 3.98267,2.95297 12.73606,7.24838 12.73606,7.24838 0.3934,0.19287 0.8684,0.0303 1.06191,-0.3631 0.19254,-0.39276 0.0293,-0.86839 -0.36311,-1.06126 z m -53.84655,1.40618 c 0,0 8.43843,-4.00466 13.16835,-7.29523 5.43063,-3.77769 9.90264,-8.6721 13.57449,-12.52758 2.37564,-2.49486 4.94319,-6.1766 4.94319,-6.1766 0.24962,-0.35927 0.16131,-0.85404 -0.19765,-1.10429 -0.35896,-0.25025 -0.85436,-0.16195 -1.10429,0.19733 0,0 -2.48658,3.57111 -4.7905,5.98947 -3.60808,3.78884 -7.99466,8.60707 -13.33124,12.3194 -4.64768,3.23319 -12.94201,7.16421 -12.94201,7.16421 -0.39562,0.18746 -0.56458,0.66086 -0.37681,1.05649 0.18745,0.39562 0.66085,0.56426 1.05647,0.3768 z m 37.81959,-14.14225 c 0,0 1.95324,3.76494 6.30858,6.24195 4.14111,2.35492 10.20486,5.67131 10.20486,5.67131 0.3835,0.21009 0.86584,0.0685 1.07624,-0.3156 0.20976,-0.38383 0.0685,-0.86616 -0.31592,-1.07624 0,0 -6.04972,-3.30875 -10.18095,-5.65825 -3.91541,-2.22707 -5.68661,-5.59703 -5.68661,-5.59703 -0.20244,-0.38797 -0.68222,-0.53876 -1.06987,-0.33632 -0.38829,0.20275 -0.53844,0.68221 -0.33633,1.07018 z m -39.12408,11.79882 c 0,0 9.29598,-4.49721 14.43937,-8.53853 5.16507,-4.05823 7.17697,-6.30348 7.17697,-6.30348 0.29296,-0.32549 0.26587,-0.82758 -0.0596,-1.12023 -0.32548,-0.29266 -0.82726,-0.26588 -1.11991,0.0599 0,0 -1.96026,2.17448 -6.97741,6.11634 -5.03883,3.95909 -14.14959,8.35746 -14.14959,8.35746 -0.39402,0.19063 -0.55948,0.66532 -0.36884,1.05935 0.19032,0.39434 0.665,0.55947 1.05903,0.36916 z m -1.30163,-2.32942 c 0,0 9.76014,-4.46595 19.84067,-12.75933 6.09594,-5.01492 14.15023,-17.75545 16.98525,-24.28687 1.20535,-2.77731 1.33445,-5.11789 0.87731,-7.01597 -0.70262,-2.91759 -2.80155,-4.82429 -4.74809,-5.71531 -1.93986,-0.88784 -4.75065,-1.34403 -7.44539,-0.044 -1.76101,0.84958 -3.48918,2.4531 -4.86413,5.23361 -3.14935,6.36819 -3.70246,8.99663 -10.66615,16.17041 -6.95095,7.16039 -14.56211,10.98654 -14.56211,10.98654 -0.39116,0.19637 -0.54928,0.67328 -0.3529,1.06445 0.19638,0.39147 0.67361,0.54959 1.06476,0.3529 0,0 7.83592,-3.93103 14.98866,-11.29895 7.13998,-7.3555 7.7205,-10.04228 10.94987,-16.57273 1.17666,-2.37883 2.62366,-3.78024 4.13091,-4.50741 2.20668,-1.06412 4.5074,-0.66914 6.09626,0.058 1.58344,0.72462 3.29471,2.27108 3.86599,4.64353 0.39243,1.62839 0.24388,3.63104 -0.78997,6.01306 -2.76424,6.36755 -10.59473,18.80427 -16.53798,23.69391 -9.90551,8.14896 -19.4935,12.54192 -19.4935,12.54192 -0.39785,0.18234 -0.57319,0.65352 -0.39084,1.05138 0.18203,0.39817 0.65321,0.57318 1.05138,0.39083 z m 42.787,-53.74867 c 0,0 2.37979,1.95196 3.79873,6.68316 1.45114,4.83703 1.279,9.16655 -1.84261,15.38937 -3.34445,6.66499 -5.04361,11.44591 -3.06519,18.28272 1.59046,5.49567 6.23653,8.70431 16.61672,13.3303 0.39977,0.17821 0.86903,-0.002 1.04692,-0.40168 0.17884,-0.39976 -0.002,-0.86902 -0.40137,-1.04723 -9.73941,-4.34067 -14.24682,-7.16581 -15.73877,-12.32227 -1.85504,-6.41123 -0.17692,-10.8807 2.95936,-17.13029 3.35815,-6.69305 3.50511,-11.35379 1.94463,-16.55648 -1.59301,-5.30884 -4.32442,-7.4642 -4.32442,-7.4642 -0.34111,-0.27416 -0.84161,-0.21933 -1.11481,0.12178 -0.27512,0.34111 -0.22061,0.84066 0.12081,1.11482 z m -43.66495,51.16008 c 0,0 8.61695,-4.24026 14.78271,-8.82927 6.19987,-4.61483 13.49287,-13.61433 15.78021,-17.68595 2.07533,-3.69448 4.98813,-9.18695 5.55113,-10.91066 0.63663,-1.95196 -0.005,-5.59098 -3.23097,-7.30417 -3.22011,-1.70968 -6.60696,-0.0252 -8.11772,2.24111 -1.31215,1.96759 -3.57971,8.99185 -9.20703,15.30043 -5.59831,6.27575 -12.15842,11.2556 -18.92446,14.89589 -0.38542,0.20752 -0.52983,0.68891 -0.32262,1.07432 0.20754,0.38542 0.68891,0.53015 1.07433,0.32262 6.92066,-3.72381 13.63028,-8.81779 19.35642,-15.23699 5.69714,-6.38668 8.01507,-13.48427 9.34317,-15.4764 1.12947,-1.69342 3.64698,-2.9976 6.0545,-1.71956 2.40178,1.27453 2.94053,3.95716 2.46649,5.4099 -0.54864,1.68035 -3.40343,7.02586 -5.42648,10.62661 -2.2239,3.95813 -9.3167,12.70387 -15.3441,17.19023 -6.06216,4.51187 -14.53565,8.67817 -14.53565,8.67817 -0.39307,0.1935 -0.55502,0.66914 -0.36183,1.06189 0.19319,0.39275 0.66914,0.55502 1.0619,0.36183 z m 45.66251,-22.99225 c -8.2e-4,9.8e-4 -2.75978,5.64869 -0.13198,11.74303 1.71382,3.9763 5.73156,8.19455 14.4824,11.05157 0.41635,0.13581 0.86457,-0.0918 1.00069,-0.50784 0.13549,-0.41634 -0.0921,-0.86456 -0.50847,-1.00037 -8.12601,-2.65299 -11.92665,-6.47881 -13.51806,-10.17138 -2.33165,-5.40831 0.10137,-10.42036 0.10137,-10.42036 0.1916,-0.39339 0.0284,-0.86839 -0.36565,-1.0603 -0.39339,-0.19159 -0.86839,-0.0277 -1.0603,0.36565 z m -14.2057,16.95305 h 1.71032 c 0.24898,0 0.48393,-0.11731 0.63344,-0.31624 0.15015,-0.19924 0.19733,-0.45715 0.1288,-0.69656 l -0.47565,-1.65039 c -0.0784,-0.27289 -0.29711,-0.48297 -0.57286,-0.55087 -0.27608,-0.0676 -0.56713,0.0175 -0.7632,0.22283 l -4.05599,4.25205 c -0.21613,0.22603 -0.27926,0.55789 -0.16066,0.84735 0.11827,0.28947 0.39498,0.48234 0.70739,0.49286 3.28324,0.1103 8.88347,1.2012 8.88347,1.2012 0.32293,0.0631 0.65193,-0.0806 0.82503,-0.36087 0.17374,-0.28021 0.15589,-0.63886 -0.045,-0.90027 -3.72955,-4.86317 -2.75277,-11.88584 -2.75277,-11.88584 0.0497,-0.3631 -0.15589,-0.71282 -0.497,-0.84608 -0.3411,-0.13357 -0.72876,-0.0159 -0.93852,0.28437 -3.40725,4.87496 -10.44523,11.63081 -10.44523,11.63081 -0.31592,0.30349 -0.32612,0.80591 -0.023,1.12151 0.30349,0.31592 0.80559,0.32581 1.12119,0.0226 0,0 5.39875,-5.18961 9.09738,-9.8105 0.0376,2.3141 0.43068,5.78894 2.13813,8.85859 -1.49928,-0.25727 -3.68141,-0.60092 -5.59607,-0.78359 z m -28.51213,-0.3054 c 0,0 -1.59492,0.75266 -4.49784,2.33037 -0.38478,0.20881 -0.52728,0.69082 -0.31815,1.07561 0.2088,0.38446 0.69082,0.52696 1.0756,0.31815 2.85128,-1.54965 4.4175,-2.28957 4.4175,-2.28957 0.39594,-0.18713 0.56554,-0.66021 0.37873,-1.05584 -0.18713,-0.39593 -0.66022,-0.56554 -1.05584,-0.37872 z m 44.40073,-48.92121 c 0,0 3.80797,3.58259 5.74942,10.26256 2.2003,7.56749 -0.70836,13.91623 -2.41708,17.88392 -0.74853,1.73582 -1.85824,3.73147 -2.63036,5.89001 -1.2299,3.44327 -1.61851,7.27738 1.31055,11.17621 4.76117,6.33758 11.66556,7.40841 11.66556,7.40841 0.43261,0.0679 0.83875,-0.22793 0.90665,-0.66054 0.0676,-0.43228 -0.22761,-0.83842 -0.66021,-0.90664 0,0 -6.29296,-1.00293 -10.64384,-6.7941 -2.53791,-3.37824 -2.15121,-6.70611 -1.08453,-9.68969 0.75968,-2.12506 1.85664,-4.08691 2.59274,-5.79691 1.8101,-4.202 4.8144,-10.93744 2.48435,-18.95315 -2.08044,-7.15721 -6.19031,-10.97921 -6.19031,-10.97921 -0.31975,-0.2987 -0.82185,-0.28149 -1.1212,0.0386 -0.2987,0.31911 -0.28149,0.82184 0.0383,1.12055 z m 14.93732,48.52208 c 0,0 -3.19015,-1.24392 -6.1055,-3.32085 -1.85824,-1.32427 -3.62754,-2.97912 -4.27054,-4.89633 -0.13963,-0.41476 -0.58912,-0.63887 -1.00452,-0.49955 -0.41474,0.13899 -0.63822,0.58912 -0.49954,1.0042 0.73928,2.2054 2.71611,4.16023 4.85425,5.68342 3.07985,2.19424 6.45043,3.50703 6.45043,3.50703 0.40806,0.15908 0.86744,-0.043 1.02684,-0.45109 0.15907,-0.40774 -0.0434,-0.86807 -0.45142,-1.02683 z m -49.16603,-9.85642 c 0,0 -7.86556,6.10615 -15.05592,9.68332 -0.39179,0.19478 -0.55183,0.67137 -0.35673,1.06349 0.19511,0.39179 0.67138,0.55182 1.06349,0.35672 7.31628,-3.63964 15.32179,-9.85035 15.32179,-9.85035 0.34589,-0.26843 0.40869,-0.76701 0.14027,-1.1129 -0.26842,-0.3459 -0.76701,-0.4087 -1.1129,-0.14028 z m 11.73346,-16.51916 c 0,0 1.37209,-2.51751 2.22071,-4.37097 0.39084,-0.85372 0.87412,-1.92199 1.54582,-2.69475 0.5174,-0.59486 1.15722,-1.00961 2.01158,-0.77307 1.81106,0.50051 1.3638,2.29594 0.63408,3.76334 -1.30163,2.61729 -3.47324,6.9857 -5.71595,10.40857 -1.81584,2.77158 -8.13079,11.49723 -20.74093,19.28278 -0.37267,0.22985 -0.48839,0.71888 -0.25822,1.09155 0.22985,0.37234 0.71919,0.48806 1.09154,0.25821 12.91682,-7.9749 19.37459,-16.92435 21.23474,-19.76351 2.27778,-3.47643 4.48669,-7.91306 5.80904,-10.57083 0.80527,-1.61851 1.0992,-3.46304 0.29456,-4.68944 -0.37872,-0.57701 -0.98762,-1.05042 -1.92614,-1.30991 -1.52351,-0.42113 -2.70846,0.19988 -3.63168,1.26178 -0.76957,0.88464 -1.34244,2.09637 -1.79034,3.07507 -0.83014,1.81073 -2.17161,4.27213 -2.17161,4.27213 -0.20945,0.38446 -0.0673,0.8668 0.3172,1.07656 0.38446,0.20881 0.8668,0.067 1.0756,-0.31751 z m 28.36549,13.03286 c 0,0 -2.50379,5.29418 2.36033,8.39315 4.3579,2.77605 6.64395,3.72127 6.64395,3.72127 0.40455,0.168 0.86903,-0.0239 1.03703,-0.42814 0.16737,-0.40423 -0.0242,-0.86903 -0.42845,-1.03671 0,0 -2.19935,-0.91844 -6.39975,-3.59439 -3.69289,-2.35268 -1.77982,-6.37552 -1.77982,-6.37552 0.18745,-0.39563 0.0185,-0.86934 -0.37713,-1.05616 -0.39594,-0.18777 -0.86935,-0.0188 -1.05616,0.3765 z m -55.34901,12.02005 c 0,0 7.48333,-3.49619 15.40244,-10.35596 0.33091,-0.28659 0.36693,-0.78805 0.08,-1.11896 -0.2866,-0.33091 -0.78774,-0.36661 -1.11864,-0.08 -7.73263,6.69846 -15.03584,10.11783 -15.03584,10.11783 -0.39657,0.18553 -0.56808,0.65831 -0.38255,1.05456 0.18554,0.39658 0.65799,0.56809 1.05457,0.38255 z m 21.82802,-42.6563 c 0,0 2.77508,-2.75851 7.3982,-3.71584 4.64194,-0.96212 8.61313,0.2834 12.14695,2.75117 3.51818,2.45566 5.87183,6.59741 6.1428,10.82236 0.27607,4.3123 -0.11987,7.11257 -3.45539,12.93308 -3.0416,5.30789 -3.4691,12.44468 -1.85664,18.37295 0.11508,0.4224 0.55183,0.67201 0.97358,0.55693 0.42272,-0.11477 0.67266,-0.55087 0.55758,-0.97328 -1.50662,-5.53837 -1.13937,-12.20877 1.70234,-17.16823 3.56219,-6.2174 3.95653,-9.2166 3.66197,-13.82251 -0.30126,-4.69262 -2.91121,-9.29374 -6.81769,-12.02229 -3.89054,-2.71674 -8.26724,-4.06236 -13.37779,-3.00397 -5.13001,1.06349 -8.19774,4.14844 -8.19774,4.14844 -0.30955,0.30923 -0.30955,0.81196 0,1.12119 0.30954,0.30923 0.81228,0.30923 1.12183,0 z m 43.42299,38.49033 c 0,0 -1.96535,-1.0686 -3.68491,-2.43909 -1.03799,-0.82758 -2.01828,-1.74155 -2.26535,-2.60644 -0.2987,-1.04628 0.16483,-2.15376 0.75905,-3.25933 0.70581,-1.31469 1.63604,-2.61314 2.18692,-3.78597 1.11895,-2.38138 3.95907,-9.63677 3.27367,-16.60047 -0.68476,-6.95317 -3.29886,-17.82207 -13.42179,-24.95568 -4.49687,-3.16816 -12.9997,-7.15912 -22.32469,-6.54704 -9.44549,0.62037 -13.33412,3.91158 -13.33412,3.91158 -0.33633,0.28022 -0.38223,0.7804 -0.10233,1.11737 0.2799,0.33632 0.7804,0.38191 1.11673,0.10201 0,0 3.64156,-2.97146 12.42333,-3.54752 8.90131,-0.58434 17.01521,3.2367 21.30711,6.26044 9.65207,6.80143 12.10422,17.18449 12.7571,23.81378 0.6513,6.6178 -2.068,13.50817 -3.13053,15.77128 -0.65608,1.39727 -1.85729,2.97242 -2.56246,4.54183 -0.55023,1.22672 -0.80399,2.45598 -0.47341,3.61351 0.24325,0.85086 0.96786,1.78428 1.90416,2.64534 1.96184,1.80468 4.81311,3.35784 4.81311,3.35784 0.38447,0.20913 0.8668,0.0666 1.07593,-0.31784 0.20881,-0.38446 0.0666,-0.86647 -0.31752,-1.0756 z m -36.59192,-0.17183 c 0,0 4.1223,-4.88007 6.61877,-8.04918 2.51686,-3.1959 4.98559,-8.6211 7.07877,-12.77847 2.20254,-4.37606 1.09761,-8.96157 1.09761,-8.96157 -0.10201,-0.42527 -0.53111,-0.68795 -0.95638,-0.58594 -0.4259,0.10202 -0.68795,0.53111 -0.58594,0.95638 0,0 0.96466,4.03081 -0.97199,7.87799 -2.04761,4.06747 -4.4462,9.38333 -6.90855,12.51004 -2.48243,3.15254 -6.58434,8.0071 -6.58434,8.0071 -0.28213,0.33442 -0.24068,0.83524 0.0941,1.11769 0.33441,0.28277 0.83556,0.24069 1.118,-0.094 z m 33.2564,-3.14712 c 0,0 1.09696,1.42915 2.93894,2.73619 0.35641,0.25344 0.85182,0.16929 1.10558,-0.18776 0.25312,-0.35705 0.16896,-0.85246 -0.18745,-1.10589 -1.62744,-1.15435 -2.60103,-2.41103 -2.60103,-2.41103 -0.26683,-0.34653 -0.76542,-0.41124 -1.11227,-0.14377 -0.34684,0.26714 -0.41155,0.76573 -0.14377,1.11226 z m 3.52871,-2.79262 c 0.0434,-0.1527 0.10553,-0.35609 0.16992,-0.53015 0.37458,-1.00515 1.00036,-2.29881 1.00036,-2.29881 0.19033,-0.39435 0.0255,-0.86935 -0.36883,-1.05935 -0.39403,-0.19031 -0.86903,-0.0255 -1.05935,0.36884 0,0 -1.08453,2.26057 -1.32522,3.2689 -0.08,0.33473 -0.0717,0.59965 -0.0335,0.75394 0.0733,0.2933 0.24483,0.46927 0.43834,0.57319 0.32549,0.17566 1.46485,1.3453 1.46485,1.3453 0.31018,0.30955 0.81291,0.30955 1.12214,0 0.30923,-0.30954 0.30923,-0.81228 0,-1.12183 0,0 -0.83395,-0.81674 -1.40874,-1.30003 z m -11.74207,1.56559 c 0,0 -0.18618,-2.7397 1.5946,-5.86354 1.96599,-3.44901 3.56728,-6.32101 4.24376,-11.12298 0.67265,-4.76754 0.54131,-7.90381 0.54131,-7.90381 -0.0182,-0.43739 -0.38701,-0.77881 -0.8244,-0.76064 -0.43738,0.0179 -0.77849,0.38765 -0.76063,0.82503 0,0 0.12081,3.02215 -0.52729,7.6185 -0.64204,4.56096 -2.18309,7.28184 -4.05089,10.55776 -2.0527,3.59979 -1.79894,6.76731 -1.79894,6.76731 0.0328,0.43675 0.41379,0.76478 0.85053,0.73227 0.43643,-0.0325 0.76478,-0.41347 0.73195,-0.8499 z m -54.84723,0.3309 c 0,0 8.17957,-4.8399 12.90215,-9.8596 0.29999,-0.31911 0.28468,-0.82184 -0.0344,-1.12151 -0.31879,-0.3003 -0.8212,-0.28468 -1.12119,0.0344 -4.59252,4.88198 -12.55371,9.58098 -12.55371,9.58098 -0.37682,0.22284 -0.50178,0.70964 -0.27927,1.08644 0.22284,0.37681 0.70963,0.5021 1.08645,0.27926 z m 32.82125,-23.23899 c 0,0 -3.86249,10.41272 -14.66158,21.42889 -0.30636,0.31274 -0.30157,0.81515 0.0112,1.12151 0.31242,0.30668 0.81515,0.30158 1.12151,-0.0108 11.07484,-11.29768 15.0167,-21.98965 15.0167,-21.98965 0.15175,-0.41028 -0.058,-0.86743 -0.4683,-1.01918 -0.4106,-0.15174 -0.86775,0.0587 -1.01949,0.46926 z m 33.70365,10.34099 c 0,0 -2.46458,6.67965 -4.5431,10.58772 -0.20562,0.38669 -0.059,0.86711 0.32708,1.07274 0.38702,0.20562 0.86775,0.0587 1.07337,-0.32773 2.11678,-3.98043 4.63141,-10.78346 4.63141,-10.78346 0.1508,-0.4106 -0.059,-0.86775 -0.46926,-1.01853 -0.4106,-0.15175 -0.86775,0.0577 -1.0195,0.46926 z m -48.06046,9.02947 c 0,0 5.55431,-6.26937 7.91943,-9.89787 0.2391,-0.36661 0.13517,-0.8585 -0.23144,-1.0976 -0.36661,-0.23909 -0.85851,-0.13484 -1.0976,0.23177 -2.32145,3.56059 -7.77757,9.71168 -7.77757,9.71168 -0.29042,0.32708 -0.26014,0.82918 0.0676,1.1196 0.3274,0.29042 0.82918,0.26013 1.1196,-0.0676 z m 40.58989,-1.1467 c 0,0 2.11869,-3.3419 4.05536,-9.57397 2.05971,-6.62737 0.58753,-14.2736 -1.07753,-19.12625 -1.66792,-4.86158 -7.23371,-12.6382 -14.72245,-16.29347 -7.45751,-3.6406 -15.40978,-4.21188 -23.64577,-1.91466 -8.27043,2.30709 -15.44708,10.0021 -18.18008,16.21377 -2.58445,5.87342 -4.54343,8.63831 -6.32197,10.21601 -0.32772,0.29042 -0.35768,0.7922 -0.0673,1.1196 0.29042,0.3274 0.7922,0.35736 1.1196,0.0676 1.87896,-1.66633 3.99191,-4.56032 6.72141,-10.76434 2.58094,-5.86545 9.34507,-13.14571 17.15452,-15.32497 7.84484,-2.18883 15.41998,-1.65581 22.52427,1.81201 7.07303,3.45284 12.34203,10.79048 13.91782,15.38364 1.5793,4.60272 3.01641,11.85301 1.06254,18.14023 -1.85984,5.98373 -3.8813,9.19747 -3.8813,9.19747 -0.23431,0.37076 -0.12337,0.86106 0.24643,1.09441 0.37044,0.23368 0.86106,0.12338 1.09441,-0.24706 z m -59.20098,-1.30737 c 0,0 7.09377,-4.73852 10.35278,-8.51047 3.25965,-3.77387 6.82693,-9.40246 7.7425,-11.38949 0.877,-1.90415 2.10913,-4.54024 2.98645,-5.69586 0.2646,-0.34844 0.19669,-0.84607 -0.15207,-1.11131 -0.34875,-0.2646 -0.84671,-0.19606 -1.11131,0.15238 -0.92417,1.21683 -2.23983,3.98427 -3.16401,5.99043 -0.88592,1.92359 -4.34737,7.36537 -7.50213,11.0165 -3.15509,3.65208 -10.03207,8.22739 -10.03207,8.22739 -0.36406,0.24291 -0.46289,0.73609 -0.21997,1.09982 0.24292,0.36502 0.73577,0.46289 1.09983,0.22061 z m 34.48598,-37.31016 c 0,0 5.94452,-0.1103 11.91837,4.54662 5.99105,4.66903 8.09094,10.28136 8.13812,15.78658 0.0475,5.55304 -2.28989,10.61865 -4.49401,14.47125 -0.21806,0.38032 -0.0858,0.86521 0.29361,1.08231 0.38031,0.21773 0.86519,0.0858 1.08293,-0.29393 2.32527,-4.06397 4.75383,-9.4168 4.70346,-15.27333 -0.0507,-5.93304 -2.29179,-11.99201 -8.74893,-17.02414 -6.47148,-5.04521 -12.92862,-4.88103 -12.92862,-4.88103 -0.43737,0.01 -0.78518,0.37299 -0.7753,0.81037 0.01,0.43834 0.37299,0.78519 0.81037,0.7753 z m -34.59341,34.17452 c 0,0 5.91901,-4.4226 8.46393,-7.2216 2.55385,-2.80919 5.80489,-7.68448 7.43009,-11.07484 1.54774,-3.2284 2.76265,-6.47148 6.14536,-9.16973 3.3505,-2.67116 6.32866,-3.72222 10.13823,-4.05121 3.80064,-0.32708 8.91119,0.59167 13.25697,4.43663 0.32803,0.28946 0.82981,0.25854 1.11959,-0.0685 0.29074,-0.32836 0.2595,-0.83014 -0.0685,-1.11992 -4.73503,-4.18829 -10.304,-5.18547 -14.44416,-4.82811 -4.13027,0.35577 -7.359,1.49514 -10.991,4.39168 -3.59948,2.87009 -4.94,6.28882 -6.58688,9.7238 -1.56941,3.27272 -4.7076,7.98064 -7.17346,10.69356 -2.47542,2.72249 -8.23887,7.01694 -8.23887,7.01694 -0.35099,0.26173 -0.42303,0.75872 -0.1613,1.10971 0.26172,0.35099 0.75904,0.42368 1.11003,0.16163 z m 15.07154,-2.42059 c 0,0 4.90174,-5.61711 7.5117,-10.87718 2.43525,-4.90717 3.74293,-9.54496 10.38369,-9.84048 6.47658,-0.28819 9.15412,4.71876 9.15412,4.71876 0.20498,0.3867 0.68572,0.53461 1.07242,0.33059 0.38701,-0.20499 0.53557,-0.68477 0.33058,-1.07242 0,0 -3.08495,-5.89733 -10.62725,-5.56197 -7.37813,0.32836 -9.02915,5.269 -11.73442,10.72067 -2.52994,5.09812 -7.28568,10.53895 -7.28568,10.53895 -0.28787,0.32995 -0.25376,0.83109 0.0759,1.11895 0.32963,0.2882 0.83109,0.25376 1.11896,-0.0759 z m -14.98674,-0.8805 c 0,0 5.43987,-4.28042 8.00519,-7.70074 2.55384,-3.40502 5.53232,-8.59847 6.97963,-12.08924 1.36762,-3.2979 7.62392,-10.76752 16.63394,-11.03531 0.43834,-0.0131 0.78263,-0.37936 0.76956,-0.81674 -0.0131,-0.43771 -0.37872,-0.782 -0.81611,-0.76893 -9.78787,0.29138 -16.56698,8.43046 -18.05287,12.014 -1.40588,3.39099 -4.30179,8.4362 -6.78326,11.74462 -2.46969,3.29281 -7.71573,7.40459 -7.71573,7.40459 -0.3443,0.27097 -0.40423,0.76956 -0.13389,1.11385 0.27033,0.3443 0.76924,0.40392 1.11354,0.1339 z m 0.22985,-3.6693 c 0,0 5.03532,-4.03559 8.21145,-9.30044 3.06518,-5.08091 4.72003,-10.2887 9.56057,-14.67592 4.62663,-4.19403 11.98786,-7.53688 21.29468,-5.27218 6.07363,1.47792 9.38715,4.79559 9.38715,4.79559 0.30828,0.31019 0.81101,0.31242 1.12215,0.004 0.30987,-0.3086 0.31241,-0.81037 0.004,-1.12152 0,0 -3.56793,-3.6202 -10.13855,-5.2199 -9.93675,-2.41804 -17.79466,1.16072 -22.73466,5.63848 -4.9671,4.50166 -6.70803,9.81784 -9.85323,15.03137 -3.03395,5.02958 -7.84516,8.8825 -7.84516,8.8825 -0.34174,0.27321 -0.39689,0.77275 -0.12305,1.11482 0.27352,0.34174 0.77307,0.39658 1.11482,0.12305 z m 0.3003,-3.90584 c 0,0 3.80861,-4.01455 5.74432,-7.07974 0.23367,-0.36979 0.12305,-0.8601 -0.24707,-1.09345 -0.37012,-0.23432 -0.86042,-0.12338 -1.09409,0.24642 -1.86972,2.96063 -5.55336,6.83491 -5.55336,6.83491 -0.30158,0.31751 -0.28851,0.81929 0.0287,1.12119 0.31752,0.30126 0.81993,0.28819 1.12151,-0.0293 z m 56.62545,-13.93249 c 0,0 1.55795,3.22426 2.47925,7.01502 0.10297,0.42527 0.53207,0.68636 0.95829,0.58275 0.42495,-0.10265 0.68636,-0.53206 0.58243,-0.95733 -0.96211,-3.96195 -2.59178,-7.33095 -2.59178,-7.33095 -0.19095,-0.39434 -0.66499,-0.55916 -1.05935,-0.36884 -0.39402,0.19096 -0.55979,0.665 -0.36884,1.05935 z m -49.24509,4.04356 c 0,0 1.89522,-4.14494 3.47866,-6.66658 1.55825,-2.4818 5.81126,-7.56717 12.16,-10.21442 6.35417,-2.64917 11.8562,-2.6973 18.42842,-0.65958 6.07363,1.88278 11.63209,6.74532 14.22228,11.67034 0.20403,0.38765 0.68381,0.53716 1.07146,0.33314 0.38701,-0.20339 0.53621,-0.68381 0.33218,-1.07083 -2.76074,-5.25082 -8.68167,-10.44044 -15.15666,-12.44819 -6.95636,-2.15695 -12.78101,-2.09319 -19.50816,0.71091 -6.73257,2.8076 -11.2403,8.20347 -12.89291,10.83542 -1.62744,2.59114 -3.57749,6.85053 -3.57749,6.85053 -0.18235,0.39817 -0.007,0.86902 0.39116,1.05105 0.39817,0.18203 0.86903,0.007 1.05106,-0.39179 z m 7.9019,-20.6826 c 0,0 -5.64964,3.39418 -9.38588,8.62875 -3.04319,4.26352 -4.17713,7.88373 -5.55591,10.14683 -0.22794,0.37363 -0.10935,0.86266 0.2646,1.09027 0.37362,0.22762 0.86201,0.10935 1.08995,-0.2646 1.36538,-2.24079 2.47956,-5.82943 5.49247,-10.05119 3.5472,-4.96902 8.91151,-8.19041 8.91151,-8.19041 0.37522,-0.22507 0.497,-0.7125 0.27161,-1.08772 -0.22538,-0.37554 -0.71313,-0.497 -1.08835,-0.27193 z m 38.96979,0.74183 c 0,0 1.97428,1.61691 4.02124,3.98681 0.28627,0.33123 0.78742,0.36821 1.11865,0.0826 0.33154,-0.28659 0.3682,-0.78773 0.0816,-1.11896 -2.14548,-2.48435 -4.21667,-4.17777 -4.21667,-4.17777 -0.33888,-0.27735 -0.83906,-0.22762 -1.11577,0.1119 -0.27735,0.33855 -0.22762,0.83906 0.11094,1.11545 z m -46.21562,3.53636 c 0,0 8.34439,-8.80408 20.43586,-10.27658 13.36855,-1.62712 23.47616,5.38057 23.47616,5.38057 0.35992,0.24993 0.85437,0.16099 1.10399,-0.19892 0.24993,-0.35992 0.16098,-0.85469 -0.19893,-1.1043 0,0 -10.57784,-7.35549 -24.57314,-5.65155 -12.65924,1.54072 -21.3951,10.75956 -21.3951,10.75956 -0.30126,0.31751 -0.28787,0.82025 0.03,1.12151 0.31783,0.30094 0.82025,0.28723 1.12119,-0.0303 z m 10.49432,-10.39485 c 0,0 13.53241,-6.7482 28.89882,0.18043 0.39914,0.18044 0.86904,0.003 1.04852,-0.39657 0.17979,-0.39913 0.002,-0.86935 -0.39658,-1.04947 -16.0904,-7.25539 -30.26007,-0.15366 -30.26007,-0.15366 -0.39148,0.19606 -0.55056,0.67329 -0.35482,1.06445 0.19574,0.39148 0.67265,0.55087 1.06413,0.35482"
         id="path42"
         style="fill:#ff0000;stroke-width:0.0816108" /><path
         fill-rule="evenodd"
         fill="#3a7ac4"
         fill-opacity="1"
         d="m 637.3283,398.0777 c 0,0 -7.53816,0 -10.97091,0 v -9.58513 c 0,-0.92004 -0.74693,-1.66728 -1.66729,-1.66728 -0.92003,0 -1.66728,0.74724 -1.66728,1.66728 v 11.25241 c 0,0.92067 0.74661,1.66728 1.66728,1.66728 h 12.6382 c 0.92003,0 1.66728,-0.74725 1.66728,-1.66728 0,-0.92036 -0.74725,-1.66728 -1.66728,-1.66728 z m 67.93046,-9.58513 c 0,0 0,6.45236 0,9.58513 h -10.97091 c -0.91972,0 -1.66728,0.74692 -1.66728,1.66728 0,0.92003 0.74756,1.66728 1.66728,1.66728 h 12.63819 c 0.92068,0 1.6676,-0.74661 1.6676,-1.66728 v -11.25241 c 0,-0.92004 -0.74692,-1.66728 -1.6676,-1.66728 -0.91971,0 -1.66728,0.74724 -1.66728,1.66728 z m -10.97091,-98.98624 h 10.97091 V 301.513 c 0,0.91972 0.74757,1.66728 1.66728,1.66728 0.92068,0 1.6676,-0.74756 1.6676,-1.66728 v -13.67395 c 0,-0.92067 -0.74692,-1.66728 -1.6676,-1.66728 h -12.63819 c -0.91972,0 -1.66728,0.74756 -1.66728,1.66728 0,0.92067 0.74756,1.66728 1.66728,1.66728 z M 626.35739,301.513 v -12.00667 c 3.43275,0 10.97091,0 10.97091,0 0.92003,0 1.66728,-0.74661 1.66728,-1.66728 0,-0.91972 -0.74725,-1.66728 -1.66728,-1.66728 h -12.6382 c -0.92067,0 -1.66728,0.74661 -1.66728,1.66728 V 301.513 c 0,0.91972 0.74725,1.66728 1.66728,1.66728 0.92036,0 1.66729,-0.74756 1.66729,-1.66728"
         id="path43"
         style="fill:#ff0000;stroke-width:0.0816108" /></g></g></svg>
